<?xml version="1.0" encoding="UTF-8" standalone="no"?>
<!-- Created with Inkscape (http://www.inkscape.org/) -->

<svg
   xmlns:dc="http://purl.org/dc/elements/1.1/"
   xmlns:cc="http://creativecommons.org/ns#"
   xmlns:rdf="http://www.w3.org/1999/02/22-rdf-syntax-ns#"
   xmlns:svg="http://www.w3.org/2000/svg"
   xmlns="http://www.w3.org/2000/svg"
   xmlns:sodipodi="http://sodipodi.sourceforge.net/DTD/sodipodi-0.dtd"
   xmlns:inkscape="http://www.inkscape.org/namespaces/inkscape"
   width="200"
   height="150"
   viewBox="0 0 52.916666 39.6875"
   version="1.1"
   id="svg1442"
   inkscape:version="0.92.2 (5c3e80d, 2017-08-06)"
   sodipodi:docname="icon_other.svg">
  <defs
     id="defs1436">
    <clipPath
       clipPathUnits="userSpaceOnUse"
       id="clipPath4479">
      <rect
         style="color:#000000;display:inline;overflow:visible;visibility:visible;fill:#00a5b0;fill-opacity:1;fill-rule:nonzero;stroke:none;stroke-width:5;marker:none;enable-background:accumulate"
         id="rect4481"
         width="250.51784"
         height="122.22845"
         x="1911.2086"
         y="398.79349" />
    </clipPath>
    <clipPath
       clipPathUnits="userSpaceOnUse"
       id="clipPath4317">
      <rect
         style="color:#000000;display:inline;overflow:visible;visibility:visible;fill:#000000;fill-opacity:0.88235294;fill-rule:nonzero;stroke:#000000;stroke-width:1;stroke-linecap:butt;stroke-linejoin:round;stroke-miterlimit:4;stroke-dasharray:none;stroke-dashoffset:0;stroke-opacity:1;marker:none;enable-background:accumulate"
         id="rect4319"
         width="305.71429"
         height="185"
         x="403.57144"
         y="258.07648" />
    </clipPath>
  </defs>
  <sodipodi:namedview
     id="base"
     pagecolor="#ffffff"
     bordercolor="#666666"
     borderopacity="1.0"
     inkscape:pageopacity="0.0"
     inkscape:pageshadow="2"
     inkscape:zoom="0.98994949"
     inkscape:cx="259.02038"
     inkscape:cy="170.88399"
     inkscape:document-units="px"
     inkscape:current-layer="text4771"
     showgrid="false"
     units="px"
     inkscape:window-width="1600"
     inkscape:window-height="837"
     inkscape:window-x="-8"
     inkscape:window-y="-8"
     inkscape:window-maximized="1" />
  <metadata
     id="metadata1439">
    <rdf:RDF>
      <cc:Work
         rdf:about="">
        <dc:format>image/svg+xml</dc:format>
        <dc:type
           rdf:resource="http://purl.org/dc/dcmitype/StillImage" />
        <dc:title></dc:title>
      </cc:Work>
    </rdf:RDF>
  </metadata>
  <g
     inkscape:label="Layer 1"
     inkscape:groupmode="layer"
     id="layer1"
     transform="translate(0,-257.31251)">
    <g
       id="g2417"
       transform="translate(-0.00134983)">
      <path
         style="color:#000000;display:inline;overflow:visible;visibility:visible;fill:#91e700;fill-opacity:1;fill-rule:nonzero;stroke:none;stroke-width:5.29166651;marker:none;enable-background:accumulate"
         d="m 17.290202,270.75026 c -2.824585,0 -5.101484,2.26864 -5.101484,5.09323 v 9.73997 c 0,2.82459 2.276899,5.09323 5.101484,5.09323 h 12.98112 c 2.249673,2.23404 4.426347,4.29181 4.613672,4.24159 -0.214868,-1.40499 -0.220742,-2.84586 -0.08268,-4.24159 h 0.826823 c 2.824586,0 5.101511,-2.26864 5.101511,-5.09323 v -9.73997 c 0,-2.82459 -2.276925,-5.09323 -5.101511,-5.09323 z"
         id="rect4767"
         inkscape:connector-curvature="0" />
      <g
         aria-label="...?"
         transform="scale(1.0016314,0.99837126)"
         style="color:#000000;font-style:normal;font-variant:normal;font-weight:bold;font-stretch:normal;font-size:3.17499995px;line-height:0%;font-family:Corbel;-inkscape-font-specification:'Corbel Bold';text-indent:0;text-align:start;text-decoration:none;text-decoration-line:none;letter-spacing:0;word-spacing:0;text-transform:none;writing-mode:lr-tb;direction:ltr;baseline-shift:baseline;text-anchor:start;display:inline;overflow:visible;visibility:visible;fill:#00383c;fill-opacity:1;fill-rule:nonzero;stroke:none;stroke-width:5.29166651;marker:none;enable-background:accumulate"
         id="text4771">
        <path
           d="m 19.112947,287.63324 h -2.470498 v -2.4705 h 2.470498 z"
           style="font-style:normal;font-variant:normal;font-weight:normal;font-stretch:normal;font-size:16.14704132px;line-height:1.25;font-family:'Keep Calm Med';-inkscape-font-specification:'Keep Calm Med';stroke-width:5.29166651"
           id="path2419" />
        <path
           d="m 23.212782,287.63324 h -2.470498 v -2.4705 h 2.470498 z"
           style="font-style:normal;font-variant:normal;font-weight:normal;font-stretch:normal;font-size:16.14704132px;line-height:1.25;font-family:'Keep Calm Med';-inkscape-font-specification:'Keep Calm Med';stroke-width:5.29166651"
           id="path2421" />
        <path
           d="m 27.312617,287.63324 h -2.470498 v -2.4705 h 2.470498 z"
           style="font-style:normal;font-variant:normal;font-weight:normal;font-stretch:normal;font-size:16.14704132px;line-height:1.25;font-family:'Keep Calm Med';-inkscape-font-specification:'Keep Calm Med';stroke-width:5.29166651"
           id="path2423" />
        <path
           d="m 36.434182,278.0096 q 0,0.61359 -0.177618,1.16259 -0.177617,0.53285 -0.500558,0.98497 -0.322941,0.43597 -0.758911,0.7912 -0.43597,0.33909 -0.936528,0.5813 l -0.839646,0.38753 q -0.403676,0.17761 -0.613588,0.46826 -0.193765,0.29065 -0.193765,0.88809 v 0.77506 h -2.309026 v -0.79121 q 0,-0.74276 0.09688,-1.24332 0.09688,-0.51671 0.290647,-0.87194 0.193764,-0.35524 0.500558,-0.58129 0.306794,-0.22606 0.726617,-0.41983 l 0.742764,-0.33909 q 0.920381,-0.41982 1.227175,-0.87194 0.306794,-0.46826 0.306794,-0.92038 0,-0.25835 -0.129177,-0.5167 -0.129176,-0.25835 -0.355235,-0.45212 -0.226058,-0.19376 -0.565146,-0.30679 -0.322941,-0.12918 -0.726617,-0.12918 -0.613588,0 -1.178734,0.20991 -0.548999,0.20991 -1.017264,0.71047 l -1.404792,-1.63085 q 0.662028,-0.66203 1.614704,-1.04956 0.952675,-0.38753 2.131409,-0.38753 0.855794,0 1.598557,0.25836 0.742764,0.2422 1.291764,0.71047 0.548999,0.46826 0.855793,1.13029 0.322941,0.64588 0.322941,1.45323 z m -3.972172,9.62364 H 30.0561 v -2.40591 h 2.40591 z"
           style="font-style:normal;font-variant:normal;font-weight:normal;font-stretch:normal;font-size:16.14704132px;line-height:1.25;font-family:'Keep Calm Med';-inkscape-font-specification:'Keep Calm Med';stroke-width:5.29166651"
           id="path2425" />
      </g>
    </g>
  </g>
</svg>
