<?xml version="1.0" encoding="UTF-8" standalone="no"?>
<!-- Created with Inkscape (http://www.inkscape.org/) -->

<svg
   xmlns:dc="http://purl.org/dc/elements/1.1/"
   xmlns:cc="http://creativecommons.org/ns#"
   xmlns:rdf="http://www.w3.org/1999/02/22-rdf-syntax-ns#"
   xmlns:svg="http://www.w3.org/2000/svg"
   xmlns="http://www.w3.org/2000/svg"
   xmlns:sodipodi="http://sodipodi.sourceforge.net/DTD/sodipodi-0.dtd"
   xmlns:inkscape="http://www.inkscape.org/namespaces/inkscape"
   width="200"
   height="150"
   viewBox="0 0 52.916666 39.6875"
   version="1.1"
   id="svg1442"
   inkscape:version="0.92.2 (5c3e80d, 2017-08-06)"
   sodipodi:docname="icon_animals.svg">
  <defs
     id="defs1436">
    <clipPath
       clipPathUnits="userSpaceOnUse"
       id="clipPath4479">
      <rect
         style="color:#000000;display:inline;overflow:visible;visibility:visible;fill:#00a5b0;fill-opacity:1;fill-rule:nonzero;stroke:none;stroke-width:5;marker:none;enable-background:accumulate"
         id="rect4481"
         width="250.51784"
         height="122.22845"
         x="1911.2086"
         y="398.79349" />
    </clipPath>
    <clipPath
       clipPathUnits="userSpaceOnUse"
       id="clipPath4317">
      <rect
         style="color:#000000;display:inline;overflow:visible;visibility:visible;fill:#000000;fill-opacity:0.88235294;fill-rule:nonzero;stroke:#000000;stroke-width:1;stroke-linecap:butt;stroke-linejoin:round;stroke-miterlimit:4;stroke-dasharray:none;stroke-dashoffset:0;stroke-opacity:1;marker:none;enable-background:accumulate"
         id="rect4319"
         width="305.71429"
         height="185"
         x="403.57144"
         y="258.07648" />
    </clipPath>
  </defs>
  <sodipodi:namedview
     id="base"
     pagecolor="#ffffff"
     bordercolor="#666666"
     borderopacity="1.0"
     inkscape:pageopacity="0.0"
     inkscape:pageshadow="2"
     inkscape:zoom="0.98994949"
     inkscape:cx="259.02038"
     inkscape:cy="170.88399"
     inkscape:document-units="px"
     inkscape:current-layer="layer1"
     showgrid="false"
     units="px"
     inkscape:window-width="1600"
     inkscape:window-height="837"
     inkscape:window-x="-8"
     inkscape:window-y="-8"
     inkscape:window-maximized="1" />
  <metadata
     id="metadata1439">
    <rdf:RDF>
      <cc:Work
         rdf:about="">
        <dc:format>image/svg+xml</dc:format>
        <dc:type
           rdf:resource="http://purl.org/dc/dcmitype/StillImage" />
        <dc:title></dc:title>
      </cc:Work>
    </rdf:RDF>
  </metadata>
  <g
     inkscape:label="Layer 1"
     inkscape:groupmode="layer"
     id="layer1"
     transform="translate(0,-257.31251)">
    <g
       id="g4608"
       transform="matrix(0.26458333,0,0,0.26458333,88.144619,227.25587)"
       style="fill:#e5ba50;fill-opacity:1">
      <g
         id="g4568"
         transform="matrix(0.16589471,0,0,0.16589471,-286.37071,162.3905)"
         style="fill:#e5ba50;fill-opacity:1">
        <path
           id="path4570"
           d="m 518.32471,592.15754 v 0.685 c 0,7.849 -6.36,14.21 -14.21,14.21 h -40.02 c -18.154,0 -18.20871,-10.57054 -20.22371,-28.60854 l -9.955,-88.852 -1.381,2.086 c -0.642,0.972 -1.401,1.859 -2.259,2.646 l -63.201,57.784 10.242,1.384 c 20.592,2.788 36.243,20.189 37.004,40.807 0.057,0.517 0.082,1.04 0.082,1.572 0,7.849 -6.36,14.209 -14.209,14.209 -0.014,0.003 -0.037,0.003 -0.057,0 h -230.92 c -0.011,0 -0.023,-0.003 -0.037,-0.003 -0.011,0 -0.023,0.003 -0.037,0.003 -1.691,0 -41.799,-0.091 -74.29,-7.966 -123.305424,-88.70419 -48.823126,-232.72931 35.985,-236.611 3.154,6.511 0.915,14.354 -5.204,18.214 -1.998,1.287 -50.171,33.193 -41.327,100.654 6.275,47.846 47.798,69.74 71.326,78.408 0.463,-9.253 1.208,-20.172 2.399,-32.446 21.9054,-139.67954 161.42013,-146.54394 227.71741,-310.53956 3.274,-2.93 6.076,-6.266 8.432,-9.873 l 115.25239,35.68449 0.921,34.197 c 0.838,31.127 -0.45694,91.78358 -17.12494,118.07958 -4.516,7.127 -6.872,15.613 -6.809,24.543 l 0.0928,134.83203 c 17.821,1.648 31.811,16.671 31.811,34.901 z M 609.629,99.269 c -2.535,-3.82 -6.752,-6.181 -11.331,-6.343 L 523.471,90.255 505.482,62.674 c -2.12,-3.254 -5.479,-5.496 -9.296,-6.207 l -53.64703,-3.788322 -17.327,-32.173 c -2.984,-5.542 -9.253,-8.472 -15.429,-7.17 -6.164,1.293 -10.74,6.488 -11.245,12.763 l 1.91613,168.759592 106.15539,32.68949 c 0,0 1.92331,-42.24671 22.06551,-48.44076 20.14219,-6.19405 23.997,-3.282 23.997,-3.282 22.249,-3.047 41.031,-17.981 49.009,-38.971 l 9.387,-24.676 c 1.636,-4.281 1.096,-9.09 -1.439,-12.909 z"
           inkscape:connector-curvature="0"
           sodipodi:nodetypes="cssscccccccsccssscccccccccccccscccccccccccczcccc"
           style="fill:#e5ba50;fill-opacity:1" />
      </g>
      <g
         id="g4572"
         style="fill:#e5ba50;fill-opacity:1" />
      <g
         id="g4574"
         style="fill:#e5ba50;fill-opacity:1" />
      <g
         id="g4576"
         style="fill:#e5ba50;fill-opacity:1" />
      <g
         id="g4578"
         style="fill:#e5ba50;fill-opacity:1" />
      <g
         id="g4580"
         style="fill:#e5ba50;fill-opacity:1" />
      <g
         id="g4582"
         style="fill:#e5ba50;fill-opacity:1" />
      <g
         id="g4584"
         style="fill:#e5ba50;fill-opacity:1" />
      <g
         id="g4586"
         style="fill:#e5ba50;fill-opacity:1" />
      <g
         id="g4588"
         style="fill:#e5ba50;fill-opacity:1" />
      <g
         id="g4590"
         style="fill:#e5ba50;fill-opacity:1" />
      <g
         id="g4592"
         style="fill:#e5ba50;fill-opacity:1" />
      <g
         id="g4594"
         style="fill:#e5ba50;fill-opacity:1" />
      <g
         id="g4596"
         style="fill:#e5ba50;fill-opacity:1" />
      <g
         id="g4598"
         style="fill:#e5ba50;fill-opacity:1" />
      <g
         id="g4600"
         style="fill:#e5ba50;fill-opacity:1" />
    </g>
  </g>
</svg>
