<?xml version="1.0" encoding="UTF-8" standalone="no"?>
<!-- Created with Inkscape (http://www.inkscape.org/) -->

<svg
   xmlns:dc="http://purl.org/dc/elements/1.1/"
   xmlns:cc="http://creativecommons.org/ns#"
   xmlns:rdf="http://www.w3.org/1999/02/22-rdf-syntax-ns#"
   xmlns:svg="http://www.w3.org/2000/svg"
   xmlns="http://www.w3.org/2000/svg"
   xmlns:sodipodi="http://sodipodi.sourceforge.net/DTD/sodipodi-0.dtd"
   xmlns:inkscape="http://www.inkscape.org/namespaces/inkscape"
   width="200"
   height="150"
   viewBox="0 0 52.916666 39.6875"
   version="1.1"
   id="svg1442"
   inkscape:version="0.92.2 (5c3e80d, 2017-08-06)"
   sodipodi:docname="icon_parking.svg">
  <defs
     id="defs1436">
    <clipPath
       clipPathUnits="userSpaceOnUse"
       id="clipPath4479">
      <rect
         style="color:#000000;display:inline;overflow:visible;visibility:visible;fill:#00a5b0;fill-opacity:1;fill-rule:nonzero;stroke:none;stroke-width:5;marker:none;enable-background:accumulate"
         id="rect4481"
         width="250.51784"
         height="122.22845"
         x="1911.2086"
         y="398.79349" />
    </clipPath>
    <clipPath
       clipPathUnits="userSpaceOnUse"
       id="clipPath4317">
      <rect
         style="color:#000000;display:inline;overflow:visible;visibility:visible;fill:#000000;fill-opacity:0.88235294;fill-rule:nonzero;stroke:#000000;stroke-width:1;stroke-linecap:butt;stroke-linejoin:round;stroke-miterlimit:4;stroke-dasharray:none;stroke-dashoffset:0;stroke-opacity:1;marker:none;enable-background:accumulate"
         id="rect4319"
         width="305.71429"
         height="185"
         x="403.57144"
         y="258.07648" />
    </clipPath>
  </defs>
  <sodipodi:namedview
     id="base"
     pagecolor="#ffffff"
     bordercolor="#666666"
     borderopacity="1.0"
     inkscape:pageopacity="0.0"
     inkscape:pageshadow="2"
     inkscape:zoom="0.98994949"
     inkscape:cx="259.02038"
     inkscape:cy="170.88399"
     inkscape:document-units="px"
     inkscape:current-layer="layer1"
     showgrid="false"
     units="px"
     inkscape:window-width="1600"
     inkscape:window-height="837"
     inkscape:window-x="-8"
     inkscape:window-y="-8"
     inkscape:window-maximized="1" />
  <metadata
     id="metadata1439">
    <rdf:RDF>
      <cc:Work
         rdf:about="">
        <dc:format>image/svg+xml</dc:format>
        <dc:type
           rdf:resource="http://purl.org/dc/dcmitype/StillImage" />
        <dc:title></dc:title>
      </cc:Work>
    </rdf:RDF>
  </metadata>
  <g
     inkscape:label="Layer 1"
     inkscape:groupmode="layer"
     id="layer1"
     transform="translate(0,-257.31251)">
    <g
       id="g2343"
       transform="translate(-61.206079,15.080603)">
      <path
         sodipodi:nodetypes="sccccscccsccsccccccscscccccscccss"
         inkscape:connector-curvature="0"
         id="path4648"
         d="m 76.007208,259.16138 c -1.495875,0 -2.103967,1.38163 -2.103967,1.38163 l -4.876932,6.0453 c 0,0 -5.318099,0.93837 -6.259963,1.76946 -0.94189,0.83103 -0.775652,1.88579 -0.775652,1.88579 v 5.59445 c 0,2.16072 2.438453,2.54995 2.438453,2.54995 h 2.992517 0.446008 c 0.738426,1.94173 2.613131,3.32079 4.813935,3.32079 2.215515,0 4.105328,-1.39732 4.833302,-3.35955 5.239835,-0.0322 13.80006,-0.0912 20.348524,-0.21331 0.666062,2.07447 2.610297,3.57286 4.906037,3.57286 2.38355,0 4.38526,-1.61745 4.9739,-3.81527 0.057,-0.003 0.11769,-0.003 0.17452,-0.005 0,0 4.72157,0.3216 5.42962,-1.88579 -0.0124,-2.31817 0.11218,-6.20456 -0.55266,-6.8694 -0.66485,-0.66485 -1.66283,-0.72234 -1.66283,-0.72234 l -12.131408,-1.76946 c 0,0 -6.872182,-5.04454 -8.091064,-6.26345 -1.218883,-1.21888 -3.102638,-1.21679 -3.102638,-1.21679 z m 13.539286,2.45771 c 1.218909,0.88652 6.390296,4.95946 6.390296,4.95946 H 82.862086 l -0.07834,-5.62359 c 2.694966,-0.0631 5.113681,-0.51742 6.762751,0.66413 z m -12.24595,-0.63584 c 1.108102,0 3.898741,0.0331 3.898741,0.0331 l -0.218175,5.45071 -8.557498,0.0784 3.543776,-4.78652 c 0,0 0.225081,-0.77568 1.333156,-0.77568 z"
         style="color:#000000;display:inline;overflow:visible;visibility:visible;fill:#e76e00;fill-opacity:1;fill-rule:nonzero;stroke:none;stroke-width:2.11666656;marker:none;enable-background:accumulate" />
      <circle
         style="color:#000000;display:inline;overflow:visible;visibility:visible;fill:#8d8d8d;fill-opacity:1;stroke:#00383c;stroke-width:1.0583334;stroke-miterlimit:4;stroke-dasharray:none;stroke-opacity:1;marker:none;enable-background:accumulate"
         id="path4671"
         cx="102.75242"
         cy="276.49307"
         r="4.8971672" />
      <circle
         id="path4673"
         style="color:#000000;display:inline;overflow:visible;visibility:visible;fill:#8d8d8d;fill-opacity:1;stroke:#00383c;stroke-width:1.0583334;stroke-miterlimit:4;stroke-dasharray:none;stroke-opacity:1;marker:none;enable-background:accumulate"
         cx="72.579514"
         cy="276.49307"
         r="4.8971672" />
    </g>
  </g>
</svg>
